<svg version="1.1" id="Layer_1" xmlns="http://www.w3.org/2000/svg" xmlns:xlink="http://www.w3.org/1999/xlink" x="0px" y="0px"
	 width="100%" viewBox="0 0 534 284" enable-background="new 0 0 534 284" xml:space="preserve">
<path fill="#FEFEFE" opacity="1.000000" stroke="none" 
	d="
M322.000000,285.000000 
	C214.699310,285.000000 107.898628,285.000000 1.048971,285.000000 
	C1.048971,190.394928 1.048971,95.789833 1.048971,1.092366 
	C178.883987,1.092366 356.768036,1.092366 534.826050,1.092366 
	C534.826050,95.666412 534.826050,190.333176 534.826050,285.000000 
	C464.123260,285.000000 393.311615,285.000000 322.000000,285.000000 
M482.722565,164.698090 
	C482.648132,165.188934 482.573700,165.679779 481.508057,166.312958 
	C475.963043,166.312958 470.417999,166.312958 463.760834,166.312958 
	C473.026794,175.014252 481.451050,182.925110 490.209625,191.149948 
	C496.680206,183.625198 503.739716,175.415619 511.618652,166.253052 
	C505.125061,166.253052 500.033325,166.253052 494.858032,165.286728 
	C494.850189,149.802277 494.859619,134.317795 494.828339,118.833389 
	C494.808258,108.901520 491.264862,100.258789 484.764130,92.883728 
	C464.626373,70.037521 426.176361,65.491127 399.815491,83.125076 
	C393.873596,87.099854 388.822784,92.406723 383.372406,97.091248 
	C363.005157,69.529556 324.124023,66.779175 299.375549,80.341324 
	C286.455414,87.421585 275.827454,97.128937 273.918060,112.322327 
	C272.428009,124.179207 273.619690,136.373108 273.619690,149.172791 
	C280.781311,141.857300 285.819336,134.256943 285.347992,123.989700 
	C284.763184,111.251236 289.744324,101.225204 299.510071,93.048622 
	C318.073425,77.506004 359.603516,77.356110 375.246307,107.745575 
	C376.142761,112.082993 377.709198,116.404602 377.811951,120.760742 
	C378.140625,134.691269 377.919861,148.634583 377.932404,162.572952 
	C377.933685,163.991470 378.078217,165.409866 378.153076,166.769379 
	C382.084656,166.769379 385.548187,166.769379 389.516052,166.836914 
	C389.615143,166.561722 389.714203,166.286514 390.046844,165.269974 
	C389.993439,164.500244 389.940033,163.730515 390.182465,162.217911 
	C390.156464,146.485931 390.130463,130.753967 390.495117,114.489136 
	C390.790588,112.975525 391.086029,111.461914 391.831970,109.488304 
	C398.848785,93.449585 411.867645,85.708260 428.520233,83.166237 
	C460.101929,78.345268 482.614777,97.516129 482.657074,129.082581 
	C482.669525,138.370117 482.917908,147.657349 482.513550,157.697723 
	C482.678253,159.801163 482.842926,161.904587 482.722565,164.698090 
M180.779083,166.804352 
	C182.216171,162.716782 183.275879,158.651901 179.794479,154.336899 
	C179.180420,153.896866 178.566345,153.456833 177.675598,152.522827 
	C177.117432,152.026001 176.559265,151.529160 175.786942,150.532791 
	C175.291061,150.015457 174.795166,149.498123 174.034241,148.316101 
	C172.820587,146.605408 171.606918,144.894730 169.732315,142.252441 
	C169.732315,147.587448 169.732315,151.795013 169.475021,156.650330 
	C169.560822,157.098557 169.646637,157.546799 169.449051,158.834381 
	C169.967972,161.526566 170.486893,164.218750 171.894943,167.062881 
	C174.594360,166.980545 177.293762,166.898209 180.779083,166.804352 
M416.887787,235.858200 
	C420.931061,235.801483 424.974365,235.744781 429.665649,235.850647 
	C430.104187,235.795715 430.542725,235.740799 431.887909,235.880615 
	C435.598663,235.804581 439.309387,235.728561 443.804504,235.812225 
	C444.860657,235.714813 445.916779,235.617401 447.678680,235.713058 
	C449.118530,235.481323 450.558411,235.249603 452.716492,235.095871 
	C453.862610,234.827728 455.008698,234.559586 456.938202,234.274506 
	C462.385864,231.970032 468.251099,230.328674 473.191101,227.217987 
	C482.443817,221.391663 489.134277,213.311996 490.774261,201.967560 
	C491.082825,199.833099 491.776459,197.324234 487.067230,197.894180 
	C430.844513,197.888657 374.621796,197.869583 318.399078,197.886459 
	C302.934143,197.891113 287.469177,198.003220 271.077454,197.909637 
	C253.754517,197.907547 236.431503,197.867783 219.108673,197.911469 
	C186.636429,197.993347 154.164291,198.123550 121.024010,198.081940 
	C120.113503,198.136124 119.203003,198.190323 117.421692,198.068359 
	C116.537407,198.114075 115.653114,198.159805 114.034485,197.998108 
	C96.619392,197.998108 79.204292,197.998108 61.706806,197.998108 
	C61.706806,210.948273 61.706806,223.310562 61.706806,235.970932 
	C64.481293,235.970932 66.803673,235.973099 69.126053,235.970627 
	C139.938156,235.895309 210.750275,235.821442 281.562378,235.742203 
	C295.050690,235.727112 308.538971,235.690491 322.946472,235.835464 
	C349.623138,235.768921 376.299774,235.702377 403.839722,235.836288 
	C405.900116,235.775864 407.960541,235.715454 410.858246,235.834778 
	C412.564728,235.776001 414.271210,235.717224 416.887787,235.858200 
M78.710526,32.211601 
	C83.606430,32.211601 88.502342,32.211601 93.866432,32.211601 
	C85.421616,23.942198 77.585838,16.269182 69.541000,8.391451 
	C62.965714,15.895200 55.991936,23.853712 48.859344,31.993460 
	C54.697506,32.298939 59.796459,32.565742 64.843582,33.789795 
	C64.843582,78.058006 64.843582,122.326218 64.843582,166.770584 
	C69.098801,166.770584 73.011620,166.770584 77.457436,166.770584 
	C77.457436,164.504013 77.461617,162.534225 77.456764,160.564468 
	C77.423950,147.239731 77.563263,133.911591 77.302765,120.591278 
	C77.073997,108.893669 82.583267,100.449409 91.109184,93.130287 
	C109.305862,77.509254 148.935120,78.084106 164.665848,103.528786 
	C164.968628,104.018532 165.453613,104.395638 166.088501,105.077644 
	C167.281647,102.528046 167.893936,100.153740 169.301559,98.428276 
	C172.467331,94.547638 170.677567,92.208984 167.682922,89.343475 
	C146.837799,69.397217 109.538612,66.688049 85.758667,83.561874 
	C83.145203,85.416336 80.547203,87.292580 77.725662,89.313713 
	C77.725662,69.807098 77.725662,51.030064 78.710526,32.211601 
M184.345093,131.815582 
	C179.141098,116.493279 183.212997,103.148430 195.938660,93.217567 
	C208.305099,83.567039 222.431244,81.081810 237.447784,83.508560 
	C243.886734,84.549118 250.067230,87.189072 256.493774,89.141403 
	C258.104614,86.778702 259.916626,84.120941 261.717682,81.479294 
	C238.841858,65.643524 196.937057,71.550102 179.883087,92.694595 
	C165.788971,110.169312 165.972794,130.730438 180.371384,147.310684 
	C199.373169,169.191574 240.897278,173.828827 264.188507,156.612808 
	C265.141296,155.908539 266.200104,154.645996 266.272797,153.579681 
	C266.527466,149.844788 266.371521,146.081909 266.371521,140.861740 
	C256.701141,150.624832 246.198593,155.288849 234.055527,156.719177 
	C213.578232,159.131241 193.971649,149.651382 184.345093,131.815582 
z"/>
<path fill="#3E555D" opacity="1.000000" stroke="none" 
	d="
M483.058167,156.944717 
	C482.917908,147.657349 482.669525,138.370117 482.657074,129.082581 
	C482.614777,97.516129 460.101929,78.345268 428.520233,83.166237 
	C411.867645,85.708260 398.848785,93.449585 391.246216,109.760193 
	C389.773254,111.019569 388.886017,112.007042 387.618958,112.993332 
	C384.161804,111.656921 381.084503,110.321686 377.958679,108.651947 
	C376.987823,107.881569 376.065460,107.445686 375.143127,107.009811 
	C359.603516,77.356110 318.073425,77.506004 299.510071,93.048622 
	C289.744324,101.225204 284.763184,111.251236 285.347992,123.989700 
	C285.819336,134.256943 280.781311,141.857300 273.619690,149.172791 
	C273.619690,136.373108 272.428009,124.179207 273.918060,112.322327 
	C275.827454,97.128937 286.455414,87.421585 299.375549,80.341324 
	C324.124023,66.779175 363.005157,69.529556 383.372406,97.091248 
	C388.822784,92.406723 393.873596,87.099854 399.815491,83.125076 
	C426.176361,65.491127 464.626373,70.037521 484.764130,92.883728 
	C491.264862,100.258789 494.808258,108.901520 494.828339,118.833389 
	C494.859619,134.317795 494.850189,149.802277 494.575958,165.985504 
	C491.845459,166.690369 489.397003,166.696472 486.965240,166.260284 
	C486.981903,150.103668 486.981903,134.389343 486.981903,118.675003 
	C486.328308,118.671272 485.674744,118.667542 485.021149,118.663811 
	C485.021149,124.181534 485.113708,129.701187 484.998291,135.216507 
	C484.846741,142.458511 484.531342,149.697098 484.079285,156.941177 
	C483.600891,156.861649 483.329559,156.861481 483.058167,156.944717 
z"/>
<path fill="#85C543" opacity="1.000000" stroke="none" 
	d="
M114.768829,198.205536 
	C115.653114,198.159805 116.537407,198.114075 117.763901,198.612640 
	C118.893417,200.057922 119.680725,200.958908 120.468033,201.859909 
	C120.876060,200.651154 121.284088,199.442398 121.692108,198.233643 
	C154.164291,198.123550 186.636429,197.993347 219.108673,197.911469 
	C236.431503,197.867783 253.754517,197.907547 271.630768,198.369507 
	C277.790222,199.554657 283.396362,200.279922 288.914368,201.394135 
	C287.199280,202.188995 285.580841,202.633530 283.943817,202.993469 
	C279.299591,204.014572 274.647766,205.001083 269.629822,206.007812 
	C268.289825,206.772736 267.386261,207.645996 266.332703,208.263168 
	C264.642365,209.253372 262.852722,210.074081 261.070190,210.704636 
	C261.012146,210.268204 260.988922,210.093552 260.965271,209.578430 
	C260.857910,208.305817 260.750977,207.373672 260.644073,206.441544 
	C259.408386,206.951035 257.493622,207.136093 257.065826,208.031555 
	C255.840103,210.597107 255.217239,213.450668 253.981125,217.390076 
	C252.395920,213.859512 251.458588,211.438660 250.250565,209.161423 
	C248.544418,205.945206 244.429459,204.861420 243.617950,207.368546 
	C241.863159,212.789917 238.559769,218.019073 240.247025,224.390015 
	C241.288498,224.363739 242.125931,224.111282 243.082153,223.517639 
	C244.272873,219.691498 245.344803,216.206543 246.549194,212.290909 
	C248.099030,215.891785 249.358673,219.127228 250.868256,222.241531 
	C252.473328,225.552902 254.593933,226.419647 257.488159,223.051880 
	C258.629364,223.374954 259.627838,223.442474 260.151306,223.976044 
	C261.519867,225.371002 262.680695,226.969727 263.924377,228.487213 
	C262.174805,229.658020 260.557495,231.224152 258.631775,231.868408 
	C257.216949,232.341705 255.398865,231.601929 253.759338,231.412750 
	C249.655380,230.939224 245.533493,229.960632 241.449722,230.098724 
	C230.028671,230.484924 218.621857,231.888748 207.212082,231.859253 
	C193.048340,231.822632 178.887314,230.750900 164.725082,230.126648 
	C159.856842,229.912064 154.979553,229.400757 150.122177,229.547562 
	C140.411560,229.841019 130.716431,230.665878 121.005630,230.927109 
	C116.312645,231.053345 111.600288,230.371719 106.893661,230.110840 
	C103.990807,229.949936 101.082527,229.882034 98.176079,229.791992 
	C95.532883,229.710114 92.887604,229.569717 90.245552,229.609344 
	C86.989059,229.658188 83.491432,229.151443 80.531921,230.159134 
	C74.845627,232.095276 71.165230,229.357605 66.341080,225.858902 
	C69.170395,224.332489 71.257469,223.206512 73.386772,222.421021 
	C76.604401,225.674988 78.165207,223.735825 79.857574,220.838531 
	C81.274368,220.944000 82.221001,220.989944 83.156540,221.402313 
	C83.808815,225.746658 85.971565,223.662903 88.185760,222.941101 
	C90.414612,222.293533 92.260170,221.625549 94.338707,221.176453 
	C95.399506,222.329391 96.227325,223.263428 97.286423,224.425323 
	C98.673279,224.416321 99.828865,224.179443 100.990067,223.971588 
	C100.995689,224.000610 100.948730,223.964722 101.382820,223.977631 
	C103.265312,223.971664 104.713715,223.952789 106.388580,223.974121 
	C106.615036,224.014328 107.027802,224.217377 107.112274,224.351089 
	C107.196739,224.484802 107.618637,224.582657 107.618637,224.582657 
	C107.618637,224.582657 107.960640,224.280212 108.322052,224.184021 
	C109.946625,221.325180 111.209778,218.562546 112.882820,215.852936 
	C113.841690,215.937927 114.390678,215.969879 115.132675,216.306976 
	C115.972588,218.143341 116.339813,219.901199 117.345253,221.141846 
	C118.346054,222.376801 120.012146,223.856094 121.341164,223.813507 
	C122.583420,223.773712 123.900543,221.989044 124.923325,220.755600 
	C125.510498,220.047485 125.577789,218.908279 126.155777,218.063721 
	C127.354774,218.094406 128.277115,218.024536 129.301102,218.258118 
	C130.277466,220.021027 131.152176,221.480515 132.115768,223.188568 
	C132.817322,223.586670 133.430008,223.736221 134.291107,223.893478 
	C134.539536,223.901199 135.012665,224.053680 135.243927,224.309875 
	C136.971542,224.422577 138.467911,224.279053 140.329498,224.045441 
	C142.773605,223.293015 144.852463,222.630661 147.365570,221.979248 
	C150.511642,222.322876 153.223480,222.655533 156.097900,223.269897 
	C158.823364,223.027588 161.386246,222.503616 164.384460,221.984894 
	C166.273987,222.007278 167.728195,222.024414 169.192719,222.384949 
	C170.571487,226.922379 172.175232,224.144669 173.625809,222.834061 
	C178.111816,218.780899 180.054611,218.920456 183.937073,223.297852 
	C184.692139,224.149185 186.430313,224.994659 187.258606,224.671829 
	C188.089874,224.347839 188.898697,222.490631 188.762924,221.427200 
	C188.281067,217.652985 187.612808,213.866287 186.549042,210.220337 
	C186.117081,208.739807 184.649307,206.796738 183.360092,206.541229 
	C182.008667,206.273392 179.935547,207.424988 178.835785,208.581741 
	C176.687271,210.841492 174.996902,213.536835 172.740128,215.975525 
	C171.883698,214.540756 171.404022,213.182312 171.035461,211.492645 
	C171.832962,209.757919 172.519348,208.354431 173.639175,206.064636 
	C165.096664,206.793198 165.887573,215.697311 160.380737,218.348953 
	C159.890488,215.138748 159.707428,212.010223 158.825195,209.093170 
	C158.461761,207.891541 156.703918,206.821716 155.352875,206.365601 
	C154.878754,206.205521 153.724396,208.060318 152.562012,209.039444 
	C151.778168,209.486023 151.312973,209.888214 150.555252,210.089127 
	C145.184494,204.664444 137.286346,204.987625 132.178741,210.192123 
	C132.019363,206.874832 130.524750,205.691635 127.345238,206.159119 
	C121.985107,206.627548 123.529427,211.369415 121.528122,213.996735 
	C120.541267,213.995361 119.883430,213.990112 119.081955,213.642548 
	C118.541405,212.219742 118.423943,210.864365 117.688560,210.116821 
	C116.225090,208.629105 114.530609,206.748993 112.714973,206.477020 
	C111.741867,206.331253 109.870613,209.014450 109.197281,210.731796 
	C108.007133,213.767303 107.422638,217.040268 106.159912,220.153381 
	C104.766151,219.638596 103.797134,219.184280 102.829666,218.334778 
	C103.435738,214.015091 104.040237,210.090591 105.004700,206.095886 
	C107.616714,204.534775 109.813354,201.933411 112.134041,201.817581 
	C115.474564,201.650879 114.965073,200.174805 114.768829,198.205536 
M198.843750,221.918884 
	C198.843750,221.918884 198.790924,221.851288 199.416367,221.886887 
	C199.805435,221.529312 200.194504,221.171738 200.583588,220.814178 
	C200.084335,220.542068 199.585098,220.269974 199.030151,219.302261 
	C199.365433,218.202515 199.700714,217.102753 200.730042,216.070587 
	C205.050842,216.815842 206.538681,215.171234 207.416763,208.796646 
	C206.677353,207.950027 205.973785,206.412155 205.192596,206.371628 
	C200.878128,206.147919 196.542999,206.236450 192.220215,206.378113 
	C191.726791,206.394287 191.266113,207.409286 190.477936,208.323364 
	C192.564224,209.064209 194.195770,209.643585 196.163818,210.342453 
	C194.919907,214.737122 193.717209,218.986160 192.088806,224.739166 
	C194.540939,224.024445 196.353592,223.496124 198.554520,222.705185 
	C198.785690,222.466110 198.898071,222.180283 198.843750,221.918884 
M211.704224,223.990326 
	C213.150467,222.953369 214.596710,221.916412 216.710846,221.145782 
	C221.456314,225.425476 230.031631,225.648117 234.400284,221.185959 
	C237.163300,218.363800 238.811005,214.568451 237.305328,210.617126 
	C235.775818,206.603256 232.024429,205.965103 228.123962,206.189331 
	C223.640350,206.447067 220.327682,208.523758 217.945816,212.337082 
	C217.242874,213.462479 215.995331,214.247726 214.473236,214.806793 
	C214.473236,212.055954 214.473236,209.305115 214.473236,206.554291 
	C214.154831,206.298630 213.836426,206.042969 213.518036,205.787323 
	C212.353439,207.178162 210.847748,208.409927 210.106934,209.998383 
	C209.082382,212.195251 208.633743,214.660706 207.396225,217.288025 
	C207.306137,218.207977 207.216049,219.127945 207.096771,220.853455 
	C207.096771,222.108658 207.096771,223.363861 207.096771,225.276245 
	C208.670074,224.736191 209.794861,224.350098 211.704224,223.990326 
z"/>
<path fill="#3C535B" opacity="1.000000" stroke="none" 
	d="
M77.725662,32.253029 
	C77.725662,51.030064 77.725662,69.807098 77.725662,89.313713 
	C80.547203,87.292580 83.145203,85.416336 85.758667,83.561874 
	C109.538612,66.688049 146.837799,69.397217 167.682922,89.343475 
	C170.677567,92.208984 172.467331,94.547638 169.301559,98.428276 
	C167.893936,100.153740 167.281647,102.528046 166.088501,105.077644 
	C165.453613,104.395638 164.968628,104.018532 164.665848,103.528786 
	C148.935120,78.084106 109.305862,77.509254 91.109184,93.130287 
	C82.583267,100.449409 77.073997,108.893669 77.302765,120.591278 
	C77.563263,133.911591 77.423950,147.239731 77.456764,160.564468 
	C77.461617,162.534225 77.457436,164.504013 77.457436,166.770584 
	C73.011620,166.770584 69.098801,166.770584 64.843582,166.770584 
	C64.843582,122.326218 64.843582,78.058006 65.141434,33.312908 
	C65.619507,32.855366 65.799713,32.874706 66.048225,33.284821 
	C66.742813,35.144829 67.831528,36.585938 67.922852,38.087700 
	C68.715706,51.125870 69.225853,64.181564 70.060654,77.216637 
	C70.306725,81.058830 71.320328,84.851860 71.982185,88.667419 
	C72.793945,88.584061 73.605713,88.500702 74.417473,88.417343 
	C74.606911,82.391060 74.890602,76.365898 74.962204,70.338211 
	C75.054008,62.609421 74.926460,54.878239 74.983025,47.148746 
	C75.045090,38.665703 73.190331,35.343788 67.148125,32.631187 
	C70.914558,32.369473 74.320114,32.311253 77.725662,32.253029 
z"/>
<path fill="#3B5259" opacity="1.000000" stroke="none" 
	d="
M184.537277,132.153351 
	C193.971649,149.651382 213.578232,159.131241 234.055527,156.719177 
	C246.198593,155.288849 256.701141,150.624832 266.371521,140.861740 
	C266.371521,146.081909 266.527466,149.844788 266.272797,153.579681 
	C266.200104,154.645996 265.141296,155.908539 264.188507,156.612808 
	C240.897278,173.828827 199.373169,169.191574 180.371384,147.310684 
	C165.972794,130.730438 165.788971,110.169312 179.883087,92.694595 
	C196.937057,71.550102 238.841858,65.643524 261.717682,81.479294 
	C259.916626,84.120941 258.104614,86.778702 256.493774,89.141403 
	C250.067230,87.189072 243.886734,84.549118 237.447784,83.508560 
	C222.431244,81.081810 208.305099,83.567039 195.938660,93.217567 
	C183.212997,103.148430 179.141098,116.493279 184.537277,132.153351 
z"/>
<path fill="#8CC749" opacity="1.000000" stroke="none" 
	d="
M114.401657,198.101807 
	C114.965073,200.174805 115.474564,201.650879 112.134041,201.817581 
	C109.813354,201.933411 107.616714,204.534775 104.658386,206.119400 
	C98.396881,207.223236 101.118912,213.350449 97.563431,216.317047 
	C96.434593,213.977127 95.685242,211.591476 94.256592,209.726059 
	C93.115158,208.235687 91.260910,206.936447 89.484215,206.478043 
	C88.854416,206.315567 87.150002,208.744461 86.580742,210.236298 
	C85.237083,213.757584 84.280655,217.426605 83.167625,221.035889 
	C82.221001,220.989944 81.274368,220.944000 79.913025,220.425140 
	C80.408386,215.544037 81.318451,211.135849 82.228523,206.727661 
	C81.656357,206.405624 81.084198,206.083572 80.512032,205.761536 
	C79.321114,207.096497 77.623383,208.241638 77.038414,209.803543 
	C75.542793,213.796860 74.542778,217.975815 73.344543,222.080521 
	C71.257469,223.206512 69.170395,224.332489 66.341080,225.858902 
	C71.165230,229.357605 74.845627,232.095276 80.531921,230.159134 
	C83.491432,229.151443 86.989059,229.658188 90.245552,229.609344 
	C92.887604,229.569717 95.532883,229.710114 98.176079,229.791992 
	C101.082527,229.882034 103.990807,229.949936 106.893661,230.110840 
	C111.600288,230.371719 116.312645,231.053345 121.005630,230.927109 
	C130.716431,230.665878 140.411560,229.841019 150.122177,229.547562 
	C154.979553,229.400757 159.856842,229.912064 164.725082,230.126648 
	C178.887314,230.750900 193.048340,231.822632 207.212082,231.859253 
	C218.621857,231.888748 230.028671,230.484924 241.449722,230.098724 
	C245.533493,229.960632 249.655380,230.939224 253.759338,231.412750 
	C255.398865,231.601929 257.216949,232.341705 258.631775,231.868408 
	C260.557495,231.224152 262.174805,229.658020 263.924377,228.487213 
	C262.680695,226.969727 261.519867,225.371002 260.151306,223.976044 
	C259.627838,223.442474 258.629364,223.374954 257.500427,222.764297 
	C257.476837,221.958893 257.800140,221.484238 258.507629,220.997482 
	C262.148743,220.745667 262.155701,218.513077 261.850128,216.120438 
	C261.630249,214.398788 261.355408,212.684174 261.105072,210.966415 
	C262.852722,210.074081 264.642365,209.253372 266.332703,208.263168 
	C267.386261,207.645996 268.289825,206.772736 269.630005,206.426361 
	C268.819916,210.934311 267.844604,215.103958 266.400482,219.104385 
	C265.105438,222.691925 264.617981,225.606369 269.331451,226.679733 
	C274.276093,227.805740 279.183472,229.237930 284.191223,229.904800 
	C289.344055,230.590988 294.596008,230.588272 299.808746,230.758163 
	C313.235535,231.195709 326.662689,231.741898 340.093567,231.887314 
	C347.779724,231.970520 355.473236,231.127838 363.163757,231.122574 
	C370.109344,231.117813 377.055389,231.685028 384.000671,232.332520 
	C383.999298,233.108398 383.998444,233.551758 383.529175,233.996246 
	C364.426331,233.997803 345.791626,233.954819 327.157898,234.071091 
	C325.444458,234.081787 323.737335,235.108734 322.027283,235.663788 
	C308.538971,235.690491 295.050690,235.727112 281.562378,235.742203 
	C210.750275,235.821442 139.938156,235.895309 69.126053,235.970627 
	C66.803673,235.973099 64.481293,235.970932 61.706806,235.970932 
	C61.706806,223.310562 61.706806,210.948273 61.706806,197.998108 
	C79.204292,197.998108 96.619392,197.998108 114.401657,198.101807 
z"/>
<path fill="#8AC346" opacity="1.000000" stroke="none" 
	d="
M383.997559,233.995117 
	C383.998444,233.551758 383.999298,233.108398 384.466125,232.332520 
	C393.801208,231.666733 402.674591,231.419540 411.538422,230.980545 
	C425.634552,230.282410 440.132202,232.117188 453.244019,224.905411 
	C455.082611,223.894135 457.112823,222.268143 457.866089,220.437714 
	C459.701050,215.978760 460.838013,211.232559 462.601410,205.474380 
	C460.571899,204.758484 458.131439,203.366562 455.579041,203.116333 
	C451.287384,202.695557 446.919617,203.130005 442.593079,202.964355 
	C438.056793,202.790649 433.531342,202.334076 429.295166,201.704315 
	C441.756805,201.124237 453.923279,200.750015 466.092529,200.596344 
	C472.128235,200.520126 478.173828,201.022232 484.203827,200.856949 
	C485.491638,200.821640 486.731323,199.028976 487.993164,198.045914 
	C491.776459,197.324234 491.082825,199.833099 490.774261,201.967560 
	C489.134277,213.311996 482.443817,221.391663 473.191101,227.217987 
	C468.251099,230.328674 462.385864,231.970032 456.337891,233.976318 
	C454.491119,234.124710 453.244690,234.571289 451.998260,235.017883 
	C450.558411,235.249603 449.118530,235.481323 447.232788,235.321564 
	C445.531281,235.170898 444.275726,235.411728 443.020142,235.652527 
	C439.309387,235.728561 435.598663,235.804581 431.384888,235.522186 
	C430.260468,235.338547 429.639069,235.513321 429.017639,235.688080 
	C424.974365,235.744781 420.931061,235.801483 416.333923,235.427002 
	C413.860321,235.215561 411.940643,235.435303 410.020935,235.655045 
	C407.960541,235.715454 405.900116,235.775864 403.281067,235.374268 
	C396.480804,234.606552 390.239166,234.300842 383.997559,233.995117 
z"/>
<path fill="#81BE3E" opacity="1.000000" stroke="none" 
	d="
M487.530212,197.970047 
	C486.731323,199.028976 485.491638,200.821640 484.203827,200.856949 
	C478.173828,201.022232 472.128235,200.520126 466.092529,200.596344 
	C453.923279,200.750015 441.756805,201.124237 428.961426,201.703629 
	C427.888733,202.000244 427.443817,202.000717 426.707916,201.705902 
	C421.945038,201.607422 417.473114,201.804199 412.667664,202.000397 
	C411.889404,201.999863 411.444702,201.999939 410.705872,201.703552 
	C404.274414,201.274048 398.137024,201.140991 391.555542,201.006256 
	C388.740967,201.005707 386.370514,201.006821 383.666687,201.005737 
	C382.888702,201.005600 382.444122,201.007675 381.666382,201.008499 
	C380.889008,201.008499 380.444763,201.009735 379.634644,201.007782 
	C378.179565,201.336197 377.090393,201.667786 375.570984,201.999313 
	C371.420898,201.934402 367.698761,201.929306 363.981812,201.787903 
	C360.290100,201.647446 356.599945,201.140686 352.915619,201.200195 
	C345.274506,201.323624 337.637665,201.715851 329.815735,201.748199 
	C328.755310,201.665253 327.878174,201.831680 326.584290,201.998383 
	C324.778259,201.997955 323.389008,201.997253 321.710144,201.703064 
	C317.613068,201.274460 313.805664,201.139359 309.665527,201.003784 
	C308.889069,201.003448 308.445374,201.003555 307.563965,201.002319 
	C305.083557,201.002090 303.040924,201.003189 300.537720,201.003632 
	C296.385651,201.003708 292.694061,201.004456 289.002502,201.005188 
	C283.396362,200.279922 277.790222,199.554657 272.094177,198.447693 
	C287.469177,198.003220 302.934143,197.891113 318.399078,197.886459 
	C374.621796,197.869583 430.844513,197.888657 487.530212,197.970047 
z"/>
<path fill="#90C155" opacity="1.000000" stroke="none" 
	d="
M486.948578,166.702591 
	C489.397003,166.696472 491.845459,166.690369 494.617737,166.468658 
	C500.033325,166.253052 505.125061,166.253052 511.618652,166.253052 
	C503.739716,175.415619 496.680206,183.625198 490.209625,191.149948 
	C481.451050,182.925110 473.026794,175.014252 463.760834,166.312958 
	C470.417999,166.312958 475.963043,166.312958 482.268280,166.303787 
	C483.709778,166.398178 484.391083,166.501740 485.376709,166.703979 
	C486.103577,166.769318 486.526062,166.735962 486.948578,166.702591 
z"/>
<path fill="#8FC34B" opacity="1.000000" stroke="none" 
	d="
M78.218094,32.232315 
	C74.320114,32.311253 70.914558,32.369473 66.945023,32.620766 
	C66.381042,32.813835 65.979919,32.894047 65.979919,32.894047 
	C65.799713,32.874706 65.619507,32.855366 65.167351,32.834282 
	C59.796459,32.565742 54.697506,32.298939 48.859344,31.993460 
	C55.991936,23.853712 62.965714,15.895200 69.541000,8.391451 
	C77.585838,16.269182 85.421616,23.942198 93.866432,32.211601 
	C88.502342,32.211601 83.606430,32.211601 78.218094,32.232315 
z"/>
<path fill="#33464F" opacity="1.000000" stroke="none" 
	d="
M375.194702,107.377686 
	C376.065460,107.445686 376.987823,107.881569 378.113403,109.016968 
	C378.878326,113.779411 379.854706,117.835258 379.924255,121.906593 
	C380.136810,134.349579 379.990814,146.798523 380.011017,159.245117 
	C380.013885,161.009903 380.165619,162.774445 380.243256,164.428284 
	C387.497498,165.560776 387.989746,165.165543 387.996490,158.561096 
	C388.006866,148.437866 387.953644,138.314194 388.042450,128.191727 
	C388.057587,126.464066 388.647095,124.741440 388.977722,123.484062 
	C388.988953,135.219070 388.956146,146.486786 389.038116,157.753647 
	C389.050781,159.491318 389.590607,161.225174 389.886627,162.960785 
	C389.940033,163.730515 389.993439,164.500244 389.751282,165.712463 
	C389.232758,166.305557 389.084747,166.510361 389.011719,166.769379 
	C385.548187,166.769379 382.084656,166.769379 378.153076,166.769379 
	C378.078217,165.409866 377.933685,163.991470 377.932404,162.572952 
	C377.919861,148.634583 378.140625,134.691269 377.811951,120.760742 
	C377.709198,116.404602 376.142761,112.082993 375.194702,107.377686 
z"/>
<path fill="#86C03E" opacity="1.000000" stroke="none" 
	d="
M383.529175,233.996246 
	C390.239166,234.300842 396.480804,234.606552 402.849426,235.274048 
	C376.299774,235.702377 349.623138,235.768921 322.486877,235.749634 
	C323.737335,235.108734 325.444458,234.081787 327.157898,234.071091 
	C345.791626,233.954819 364.426331,233.997803 383.529175,233.996246 
z"/>
<path fill="#44595E" opacity="1.000000" stroke="none" 
	d="
M169.732452,157.995026 
	C169.646637,157.546799 169.560822,157.098557 169.908813,156.156036 
	C172.357132,153.846741 168.692200,148.668198 174.299271,148.980804 
	C174.795166,149.498123 175.291061,150.015457 175.934387,151.096359 
	C176.705322,152.112213 177.328812,152.564514 177.952286,153.016800 
	C178.566345,153.456833 179.180420,153.896866 179.911804,155.058838 
	C180.017151,159.459137 180.005157,163.137512 179.993179,166.815872 
	C177.293762,166.898209 174.594360,166.980545 171.447449,166.560638 
	C170.577454,163.370590 170.154953,160.682816 169.732452,157.995026 
z"/>
<path fill="#3E555D" opacity="1.000000" stroke="none" 
	d="
M390.034546,162.589355 
	C389.590607,161.225174 389.050781,159.491318 389.038116,157.753647 
	C388.956146,146.486786 388.988953,135.219070 388.983215,123.144302 
	C388.976593,121.884193 388.970856,121.431412 388.971436,120.602364 
	C389.353333,118.491386 389.728882,116.756683 390.104431,115.021988 
	C390.130463,130.753967 390.156464,146.485931 390.034546,162.589355 
z"/>
<path fill="#4A5A5E" opacity="1.000000" stroke="none" 
	d="
M174.166748,148.648453 
	C168.692200,148.668198 172.357132,153.846741 170.037476,155.832153 
	C169.732315,151.795013 169.732315,147.587448 169.732315,142.252441 
	C171.606918,144.894730 172.820587,146.605408 174.166748,148.648453 
z"/>
<path fill="#4A5A5E" opacity="1.000000" stroke="none" 
	d="
M180.386139,166.810120 
	C180.005157,163.137512 180.017151,159.459137 180.044327,155.312531 
	C183.275879,158.651901 182.216171,162.716782 180.386139,166.810120 
z"/>
<path fill="#4A5A5E" opacity="1.000000" stroke="none" 
	d="
M169.590759,158.414703 
	C170.154953,160.682816 170.577454,163.370590 171.002899,166.484650 
	C170.486893,164.218750 169.967972,161.526566 169.590759,158.414703 
z"/>
<path fill="#33464F" opacity="1.000000" stroke="none" 
	d="
M390.299774,114.755562 
	C389.728882,116.756683 389.353333,118.491386 388.689087,120.325684 
	C388.266510,117.948357 388.132660,115.471428 387.998779,112.994507 
	C388.886017,112.007042 389.773254,111.019569 391.020966,109.990204 
	C391.086029,111.461914 390.790588,112.975525 390.299774,114.755562 
z"/>
<path fill="#90C155" opacity="1.000000" stroke="none" 
	d="
M482.785858,157.321228 
	C483.329559,156.861481 483.600891,156.861649 483.990417,157.380188 
	C484.142853,159.874832 484.177032,161.934494 484.007172,164.006348 
	C483.536407,164.131119 483.271240,164.127609 483.007629,164.008026 
	C482.842926,161.904587 482.678253,159.801163 482.785858,157.321228 
z"/>
<path fill="#8CC749" opacity="1.000000" stroke="none" 
	d="
M121.358063,198.157791 
	C121.284088,199.442398 120.876060,200.651154 120.468033,201.859909 
	C119.680725,200.958908 118.893417,200.057922 118.199303,198.700714 
	C119.203003,198.190323 120.113503,198.136124 121.358063,198.157791 
z"/>
<path fill="#86C03E" opacity="1.000000" stroke="none" 
	d="
M410.439575,235.744904 
	C411.940643,235.435303 413.860321,235.215561 415.878845,235.327133 
	C414.271210,235.717224 412.564728,235.776001 410.439575,235.744904 
z"/>
<path fill="#3E555D" opacity="1.000000" stroke="none" 
	d="
M482.865112,164.353058 
	C483.271240,164.127609 483.536407,164.131119 484.217834,164.200897 
	C484.779144,165.123917 484.925751,165.864609 485.072357,166.605301 
	C484.391083,166.501740 483.709778,166.398178 482.763885,166.232605 
	C482.573700,165.679779 482.648132,165.188934 482.865112,164.353058 
z"/>
<path fill="#86C03E" opacity="1.000000" stroke="none" 
	d="
M452.357361,235.056885 
	C453.244690,234.571289 454.491119,234.124710 455.946167,233.984787 
	C455.008698,234.559586 453.862610,234.827728 452.357361,235.056885 
z"/>
<path fill="#86C03E" opacity="1.000000" stroke="none" 
	d="
M443.412323,235.732391 
	C444.275726,235.411728 445.531281,235.170898 446.879883,235.225037 
	C445.916779,235.617401 444.860657,235.714813 443.412323,235.732391 
z"/>
<path fill="#86C03E" opacity="1.000000" stroke="none" 
	d="
M429.341644,235.769379 
	C429.639069,235.513321 430.260468,235.338547 430.931580,235.424820 
	C430.542725,235.740799 430.104187,235.795715 429.341644,235.769379 
z"/>
<path fill="#4A5A5E" opacity="1.000000" stroke="none" 
	d="
M177.813934,152.769806 
	C177.328812,152.564514 176.705322,152.112213 176.041473,151.346130 
	C176.559265,151.529160 177.117432,152.026001 177.813934,152.769806 
z"/>
<path fill="#3E555D" opacity="1.000000" stroke="none" 
	d="
M389.263885,166.803146 
	C389.084747,166.510361 389.232758,166.305557 389.634521,166.083130 
	C389.714203,166.286514 389.615143,166.561722 389.263885,166.803146 
z"/>
<path fill="#2F4B56" opacity="1.000000" stroke="none" 
	d="
M387.618958,112.993332 
	C388.132660,115.471428 388.266510,117.948357 388.682770,120.701958 
	C388.970856,121.431412 388.976593,121.884193 388.976776,122.676727 
	C388.647095,124.741440 388.057587,126.464066 388.042450,128.191727 
	C387.953644,138.314194 388.006866,148.437866 387.996490,158.561096 
	C387.989746,165.165543 387.497498,165.560776 380.243256,164.428284 
	C380.165619,162.774445 380.013885,161.009903 380.011017,159.245117 
	C379.990814,146.798523 380.136810,134.349579 379.924255,121.906593 
	C379.854706,117.835258 378.878326,113.779411 378.161926,109.351471 
	C381.084503,110.321686 384.161804,111.656921 387.618958,112.993332 
z"/>
<path fill="#2B424E" opacity="1.000000" stroke="none" 
	d="
M485.376709,166.703979 
	C484.925751,165.864609 484.779144,165.123917 484.421875,164.188690 
	C484.177032,161.934494 484.142853,159.874832 484.197540,157.376160 
	C484.531342,149.697098 484.846741,142.458511 484.998291,135.216507 
	C485.113708,129.701187 485.021149,124.181534 485.021149,118.663811 
	C485.674744,118.667542 486.328308,118.671272 486.981903,118.675003 
	C486.981903,134.389343 486.981903,150.103668 486.965240,166.260315 
	C486.526062,166.735962 486.103577,166.769318 485.376709,166.703979 
z"/>
<path fill="#8BC24A" opacity="1.000000" stroke="none" 
	d="
M308.001678,201.003662 
	C308.445374,201.003555 308.889069,201.003448 309.714020,201.332794 
	C314.063446,201.773697 318.031616,201.885132 321.999786,201.996552 
	C323.389008,201.997253 324.778259,201.997955 326.767212,202.248596 
	C328.244293,202.331558 329.121704,202.164566 329.999084,201.997559 
	C337.637665,201.715851 345.274506,201.323624 352.915619,201.200195 
	C356.599945,201.140686 360.290100,201.647446 363.981812,201.787903 
	C367.698761,201.929306 371.420898,201.934402 375.884247,202.135132 
	C377.752014,201.850998 378.876282,201.430984 380.000549,201.010971 
	C380.444763,201.009735 380.889008,201.008499 381.705475,201.305847 
	C382.484802,201.921707 382.891876,202.238998 383.298950,202.556290 
	C383.532654,202.040161 383.766357,201.524048 384.000092,201.007935 
	C386.370514,201.006821 388.740967,201.005707 391.647278,201.401627 
	C398.455444,201.865768 404.727722,201.932892 411.000000,202.000000 
	C411.444702,201.999939 411.889404,201.999863 412.958862,202.295288 
	C418.055389,202.394241 422.527130,202.197708 426.998871,202.001190 
	C427.443817,202.000717 427.888733,202.000244 428.667419,202.000458 
	C433.531342,202.334076 438.056793,202.790649 442.593079,202.964355 
	C446.919617,203.130005 451.287384,202.695557 455.579041,203.116333 
	C458.131439,203.366562 460.571899,204.758484 462.601410,205.474380 
	C460.838013,211.232559 459.701050,215.978760 457.866089,220.437714 
	C457.112823,222.268143 455.082611,223.894135 453.244019,224.905411 
	C440.132202,232.117188 425.634552,230.282410 411.538422,230.980545 
	C402.674591,231.419540 393.801208,231.666733 384.466675,232.000000 
	C377.055389,231.685028 370.109344,231.117813 363.163757,231.122574 
	C355.473236,231.127838 347.779724,231.970520 340.093567,231.887314 
	C326.662689,231.741898 313.235535,231.195709 299.808746,230.758163 
	C294.596008,230.588272 289.344055,230.590988 284.191223,229.904800 
	C279.183472,229.237930 274.276093,227.805740 269.331451,226.679733 
	C264.617981,225.606369 265.105438,222.691925 266.400482,219.104385 
	C267.844604,215.103958 268.819916,210.934311 269.999084,206.419769 
	C274.647766,205.001083 279.299591,204.014572 283.943817,202.993469 
	C285.580841,202.633530 287.199280,202.188995 288.914368,201.394135 
	C292.694061,201.004456 296.385651,201.003708 300.616638,201.378967 
	C303.637299,203.321396 306.077240,204.511185 308.001678,201.003662 
z"/>
<path fill="#F4F7EE" opacity="1.000000" stroke="none" 
	d="
M258.123413,221.009583 
	C257.800140,221.484238 257.476837,221.958893 257.141235,222.721130 
	C254.593933,226.419647 252.473328,225.552902 250.868256,222.241531 
	C249.358673,219.127228 248.099030,215.891785 246.549194,212.290909 
	C245.344803,216.206543 244.272873,219.691498 242.719666,223.579926 
	C241.506577,224.043533 240.774780,224.103683 240.042969,224.163849 
	C238.559769,218.019073 241.863159,212.789917 243.617950,207.368546 
	C244.429459,204.861420 248.544418,205.945206 250.250565,209.161423 
	C251.458588,211.438660 252.395920,213.859512 253.981125,217.390076 
	C255.217239,213.450668 255.840103,210.597107 257.065826,208.031555 
	C257.493622,207.136093 259.408386,206.951035 260.644073,206.441544 
	C260.750977,207.373672 260.857910,208.305817 260.731873,209.871674 
	C259.707092,214.006805 258.915253,217.508194 258.123413,221.009583 
z"/>
<path fill="#F4F7EE" opacity="1.000000" stroke="none" 
	d="
M107.027802,224.217377 
	C107.027802,224.217377 106.615036,224.014328 106.338509,223.730286 
	C106.061981,223.446243 105.899231,222.975677 105.976868,222.734283 
	C106.053047,222.323853 106.051575,222.154816 106.200577,221.711456 
	C106.428932,221.029373 106.506790,220.621613 106.584656,220.213852 
	C107.422638,217.040268 108.007133,213.767303 109.197281,210.731796 
	C109.870613,209.014450 111.741867,206.331253 112.714973,206.477020 
	C114.530609,206.748993 116.225090,208.629105 117.688560,210.116821 
	C118.423943,210.864365 118.541405,212.219742 119.104294,213.946045 
	C119.671768,215.270096 120.073257,215.948364 120.810516,217.193893 
	C121.285957,215.739822 121.571556,214.866348 121.857155,213.992874 
	C123.529427,211.369415 121.985107,206.627548 127.470428,206.544983 
	C127.260208,210.581696 126.569664,214.272415 125.879120,217.963150 
	C125.577789,218.908279 125.510498,220.047485 124.923325,220.755600 
	C123.900543,221.989044 122.583420,223.773712 121.341164,223.813507 
	C120.012146,223.856094 118.346054,222.376801 117.345253,221.141846 
	C116.339813,219.901199 115.972588,218.143341 115.124435,215.978638 
	C114.436996,214.476318 113.950798,213.607498 113.049042,211.996109 
	C112.763809,213.879349 112.618370,214.839630 112.472931,215.799911 
	C111.209778,218.562546 109.946625,221.325180 108.092392,224.115997 
	C107.501328,224.144180 107.027802,224.217377 107.027802,224.217377 
z"/>
<path fill="#F2F6EB" opacity="1.000000" stroke="none" 
	d="
M83.156540,221.402313 
	C84.280655,217.426605 85.237083,213.757584 86.580742,210.236298 
	C87.150002,208.744461 88.854416,206.315567 89.484215,206.478043 
	C91.260910,206.936447 93.115158,208.235687 94.256592,209.726059 
	C95.685242,211.591476 96.434593,213.977127 97.563431,216.317047 
	C101.118912,213.350449 98.396881,207.223236 104.298431,206.189606 
	C104.040237,210.090591 103.435738,214.015091 102.613190,218.613251 
	C101.913010,220.846176 101.430870,222.405457 100.948730,223.964722 
	C100.948730,223.964722 100.995689,224.000610 100.596527,224.000397 
	C99.149963,224.065948 98.102547,224.131699 97.055145,224.197464 
	C96.227325,223.263428 95.399506,222.329391 94.296616,220.813446 
	C92.967522,217.704269 91.913506,215.177017 90.382401,211.505859 
	C89.305893,216.268845 88.554184,219.594772 87.802475,222.920685 
	C85.971565,223.662903 83.808815,225.746658 83.156540,221.402313 
z"/>
<path fill="#F3F7EC" opacity="1.000000" stroke="none" 
	d="
M214.997345,215.188843 
	C215.995331,214.247726 217.242874,213.462479 217.945816,212.337082 
	C220.327682,208.523758 223.640350,206.447067 228.123962,206.189331 
	C232.024429,205.965103 235.775818,206.603256 237.305328,210.617126 
	C238.811005,214.568451 237.163300,218.363800 234.400284,221.185959 
	C230.031631,225.648117 221.456314,225.425476 216.357056,220.623840 
	C215.668716,218.671051 215.334152,217.240219 214.999176,215.654236 
	C214.998764,215.499115 214.997345,215.188843 214.997345,215.188843 
M231.015884,209.977371 
	C230.046387,209.856064 229.055710,209.542618 228.111038,209.646652 
	C223.979034,210.101685 221.931519,212.809586 221.979538,216.645493 
	C221.997971,218.117844 223.607178,220.626144 224.808304,220.834259 
	C228.765198,221.519882 231.442764,219.226532 232.293716,215.387833 
	C232.639847,213.826508 231.965393,212.038940 231.015884,209.977371 
z"/>
<path fill="#F4F7ED" opacity="1.000000" stroke="none" 
	d="
M132.026901,222.939987 
	C131.152176,221.480515 130.277466,220.021027 129.450714,217.955475 
	C130.415115,215.107925 131.331528,212.866470 132.247955,210.625000 
	C137.286346,204.987625 145.184494,204.664444 150.589355,210.491516 
	C149.587769,214.719559 148.259552,218.343933 146.931335,221.968307 
	C144.852463,222.630661 142.773605,223.293015 139.919983,223.990936 
	C137.767715,224.035568 136.390198,224.044632 135.012665,224.053680 
	C135.012665,224.053680 134.539536,223.901199 134.091156,223.688187 
	C133.104156,223.296783 132.565521,223.118378 132.026901,222.939987 
M145.962555,215.038284 
	C145.017258,213.243927 144.438370,210.319962 143.056412,209.871689 
	C139.247635,208.636185 136.646591,211.153671 135.705460,214.666885 
	C135.231552,216.435928 135.397354,219.650497 136.460129,220.315460 
	C139.509247,222.223236 142.477890,220.842758 144.613174,218.006149 
	C145.103653,217.354568 145.412430,216.566223 145.962555,215.038284 
z"/>
<path fill="#F4F6EC" opacity="1.000000" stroke="none" 
	d="
M173.116867,216.051849 
	C174.996902,213.536835 176.687271,210.841492 178.835785,208.581741 
	C179.935547,207.424988 182.008667,206.273392 183.360092,206.541229 
	C184.649307,206.796738 186.117081,208.739807 186.549042,210.220337 
	C187.612808,213.866287 188.281067,217.652985 188.762924,221.427200 
	C188.898697,222.490631 188.089874,224.347839 187.258606,224.671829 
	C186.430313,224.994659 184.692139,224.149185 183.937073,223.297852 
	C180.054611,218.920456 178.111816,218.780899 173.625809,222.834061 
	C172.175232,224.144669 170.571487,226.922379 169.441315,222.180099 
	C170.825333,219.771866 171.971100,217.911850 173.116867,216.051849 
z"/>
<path fill="#F2F6EA" opacity="1.000000" stroke="none" 
	d="
M152.880676,208.995056 
	C153.724396,208.060318 154.878754,206.205521 155.352875,206.365601 
	C156.703918,206.821716 158.461761,207.891541 158.825195,209.093170 
	C159.707428,212.010223 159.890488,215.138748 160.380737,218.348953 
	C165.887573,215.697311 165.096664,206.793198 173.639175,206.064636 
	C172.519348,208.354431 171.832962,209.757919 170.754929,211.686722 
	C168.225220,215.467896 166.087173,218.723770 163.949127,221.979645 
	C161.386246,222.503616 158.823364,223.027588 156.142151,222.855789 
	C154.976105,217.771683 153.928391,213.383377 152.880676,208.995056 
z"/>
<path fill="#F0F5E7" opacity="1.000000" stroke="none" 
	d="
M200.035995,216.003006 
	C199.700714,217.102753 199.365433,218.202515 198.949600,219.948334 
	C198.843018,221.013351 198.816971,221.432327 198.790924,221.851288 
	C198.790924,221.851288 198.843750,221.918884 198.648590,221.988617 
	C198.244492,222.325760 198.148773,222.628906 198.166229,222.967789 
	C196.353592,223.496124 194.540939,224.024445 192.088806,224.739166 
	C193.717209,218.986160 194.919907,214.737122 196.163818,210.342453 
	C194.195770,209.643585 192.564224,209.064209 190.477936,208.323364 
	C191.266113,207.409286 191.726791,206.394287 192.220215,206.378113 
	C196.542999,206.236450 200.878128,206.147919 205.192596,206.371628 
	C205.973785,206.412155 206.677353,207.950027 206.798721,208.953384 
	C200.665482,208.317108 200.133926,211.966782 200.035995,216.003006 
z"/>
<path fill="#F3F6ED" opacity="1.000000" stroke="none" 
	d="
M214.735291,214.997818 
	C214.997345,215.188843 214.998764,215.499115 214.689789,215.852600 
	C213.227097,218.792068 212.073380,221.378036 210.919662,223.964005 
	C209.794861,224.350098 208.670074,224.736191 207.096771,225.276245 
	C207.096771,223.363861 207.096771,222.108658 207.321228,220.203308 
	C207.676605,218.705826 207.807541,217.858475 207.938477,217.011139 
	C208.633743,214.660706 209.082382,212.195251 210.106934,209.998383 
	C210.847748,208.409927 212.353439,207.178162 213.518036,205.787323 
	C213.836426,206.042969 214.154831,206.298630 214.473236,206.554291 
	C214.473236,209.305115 214.473236,212.055954 214.735291,214.997818 
z"/>
<path fill="#F0F2E8" opacity="1.000000" stroke="none" 
	d="
M73.386765,222.421021 
	C74.542778,217.975815 75.542793,213.796860 77.038414,209.803543 
	C77.623383,208.241638 79.321114,207.096497 80.512032,205.761536 
	C81.084198,206.083572 81.656357,206.405624 82.228523,206.727661 
	C81.318451,211.135849 80.408386,215.544037 79.442863,220.365616 
	C78.165207,223.735825 76.604401,225.674988 73.386765,222.421021 
z"/>
<path fill="#8CC749" opacity="1.000000" stroke="none" 
	d="
M152.562027,209.039444 
	C153.928391,213.383377 154.976105,217.771683 155.979568,222.574097 
	C153.223480,222.655533 150.511642,222.322876 147.365570,221.979248 
	C148.259552,218.343933 149.587769,214.719559 150.881882,210.692795 
	C151.312973,209.888214 151.778168,209.486023 152.562027,209.039444 
z"/>
<path fill="#8CC749" opacity="1.000000" stroke="none" 
	d="
M132.178741,210.192123 
	C131.331528,212.866470 130.415115,215.107925 129.349091,217.652039 
	C128.277115,218.024536 127.354774,218.094406 126.155777,218.063721 
	C126.569664,214.272415 127.260208,210.581696 127.825546,206.505096 
	C130.524750,205.691635 132.019363,206.874832 132.178741,210.192123 
z"/>
<path fill="#8FC64C" opacity="1.000000" stroke="none" 
	d="
M164.384460,221.984894 
	C166.087173,218.723770 168.225220,215.467896 170.643799,212.017960 
	C171.404022,213.182312 171.883698,214.540756 172.740128,215.975525 
	C171.971100,217.911850 170.825333,219.771866 169.431000,221.836700 
	C167.728195,222.024414 166.273987,222.007278 164.384460,221.984894 
z"/>
<path fill="#8BC649" opacity="1.000000" stroke="none" 
	d="
M200.383026,216.036804 
	C200.133926,211.966782 200.665482,208.317108 206.594101,209.120911 
	C206.538681,215.171234 205.050842,216.815842 200.383026,216.036804 
z"/>
<path fill="#8CC749" opacity="1.000000" stroke="none" 
	d="
M88.185760,222.941101 
	C88.554184,219.594772 89.305893,216.268845 90.382401,211.505859 
	C91.913506,215.177017 92.967522,217.704269 94.063629,220.594543 
	C92.260170,221.625549 90.414612,222.293533 88.185760,222.941101 
z"/>
<path fill="#8CCA4B" opacity="1.000000" stroke="none" 
	d="
M211.311951,223.977173 
	C212.073380,221.378036 213.227097,218.792068 214.690201,216.007736 
	C215.334152,217.240219 215.668716,218.671051 216.023117,220.490662 
	C214.596710,221.916412 213.150467,222.953369 211.311951,223.977173 
z"/>
<path fill="#8FC152" opacity="1.000000" stroke="none" 
	d="
M258.507629,220.997482 
	C258.915253,217.508194 259.707092,214.006805 260.732300,210.212158 
	C260.988922,210.093552 261.012146,210.268204 261.070190,210.704636 
	C261.355408,212.684174 261.630249,214.398788 261.850128,216.120438 
	C262.155701,218.513077 262.148743,220.745667 258.507629,220.997482 
z"/>
<path fill="#8CC749" opacity="1.000000" stroke="none" 
	d="
M101.382828,223.977631 
	C101.430870,222.405457 101.913010,220.846176 102.611626,219.008453 
	C103.797134,219.184280 104.766151,219.638596 106.159912,220.153381 
	C106.506790,220.621613 106.428932,221.029373 106.030190,221.788071 
	C105.630447,222.232849 105.465797,222.374008 105.487083,222.412613 
	C105.598495,222.614624 105.757057,222.790634 105.899231,222.975677 
	C105.899231,222.975677 106.061981,223.446243 106.112045,223.690079 
	C104.713715,223.952789 103.265312,223.971664 101.382828,223.977631 
z"/>
<path fill="#8CC749" opacity="1.000000" stroke="none" 
	d="
M121.528122,213.996735 
	C121.571556,214.866348 121.285957,215.739822 120.810516,217.193893 
	C120.073257,215.948364 119.671768,215.270096 119.247940,214.288345 
	C119.883430,213.990112 120.541267,213.995361 121.528122,213.996735 
z"/>
<path fill="#8CC749" opacity="1.000000" stroke="none" 
	d="
M112.882820,215.852936 
	C112.618370,214.839630 112.763809,213.879349 113.049042,211.996109 
	C113.950798,213.607498 114.436996,214.476318 114.931427,215.673477 
	C114.390678,215.969879 113.841690,215.937927 112.882820,215.852936 
z"/>
<path fill="#8BC649" opacity="1.000000" stroke="none" 
	d="
M207.667343,217.149582 
	C207.807541,217.858475 207.676605,218.705826 207.335815,219.800537 
	C207.216049,219.127945 207.306137,218.207977 207.667343,217.149582 
z"/>
<path fill="#8CC749" opacity="1.000000" stroke="none" 
	d="
M135.243927,224.309875 
	C136.390198,224.044632 137.767715,224.035568 139.554749,224.081024 
	C138.467911,224.279053 136.971542,224.422577 135.243927,224.309875 
z"/>
<path fill="#8BC649" opacity="1.000000" stroke="none" 
	d="
M199.103638,221.869080 
	C198.816971,221.432327 198.843018,221.013351 198.977448,220.296127 
	C199.585098,220.269974 200.084335,220.542068 200.583588,220.814178 
	C200.194504,221.171738 199.805435,221.529312 199.103638,221.869080 
z"/>
<path fill="#8CC749" opacity="1.000000" stroke="none" 
	d="
M97.286415,224.425323 
	C98.102547,224.131699 99.149963,224.065948 100.590912,223.971390 
	C99.828865,224.179443 98.673279,224.416321 97.286415,224.425323 
z"/>
<path fill="#8CC749" opacity="1.000000" stroke="none" 
	d="
M240.247025,224.390015 
	C240.774780,224.103683 241.506577,224.043533 242.600861,223.921112 
	C242.125931,224.111282 241.288498,224.363739 240.247025,224.390015 
z"/>
<path fill="#8CC749" opacity="1.000000" stroke="none" 
	d="
M132.115768,223.188568 
	C132.565521,223.118378 133.104156,223.296783 133.842743,223.680466 
	C133.430008,223.736221 132.817322,223.586670 132.115768,223.188568 
z"/>
<path fill="#8CC749" opacity="1.000000" stroke="none" 
	d="
M107.112274,224.351089 
	C107.027802,224.217377 107.501328,224.144180 107.730988,224.212189 
	C107.960640,224.280212 107.618637,224.582657 107.618637,224.582657 
	C107.618637,224.582657 107.196739,224.484802 107.112274,224.351089 
z"/>
<path fill="#8BC649" opacity="1.000000" stroke="none" 
	d="
M198.360382,222.836487 
	C198.148773,222.628906 198.244492,222.325760 198.672516,221.953018 
	C198.898071,222.180283 198.785690,222.466110 198.360382,222.836487 
z"/>
<path fill="#2E4754" opacity="1.000000" stroke="none" 
	d="
M66.048225,33.284821 
	C65.979919,32.894047 66.381042,32.813835 66.584137,32.824261 
	C73.190331,35.343788 75.045090,38.665703 74.983025,47.148746 
	C74.926460,54.878239 75.054008,62.609421 74.962204,70.338211 
	C74.890602,76.365898 74.606911,82.391060 74.417473,88.417343 
	C73.605713,88.500702 72.793945,88.584061 71.982185,88.667419 
	C71.320328,84.851860 70.306725,81.058830 70.060654,77.216637 
	C69.225853,64.181564 68.715706,51.125870 67.922852,38.087700 
	C67.831528,36.585938 66.742813,35.144829 66.048225,33.284821 
z"/>
<path fill="#8AC346" opacity="1.000000" stroke="none" 
	d="
M410.705872,201.703552 
	C404.727722,201.932892 398.455444,201.865768 392.091431,201.403290 
	C398.137024,201.140991 404.274414,201.274048 410.705872,201.703552 
z"/>
<path fill="#8AC346" opacity="1.000000" stroke="none" 
	d="
M426.707916,201.705902 
	C422.527130,202.197708 418.055389,202.394241 413.292419,202.295883 
	C417.473114,201.804199 421.945038,201.607422 426.707916,201.705902 
z"/>
<path fill="#85C543" opacity="1.000000" stroke="none" 
	d="
M321.710144,201.703064 
	C318.031616,201.885132 314.063446,201.773697 310.046753,201.333252 
	C313.805664,201.139359 317.613068,201.274460 321.710144,201.703064 
z"/>
<path fill="#85C543" opacity="1.000000" stroke="none" 
	d="
M307.563965,201.002319 
	C306.077240,204.511185 303.637299,203.321396 301.077148,201.379608 
	C303.040924,201.003189 305.083557,201.002090 307.563965,201.002319 
z"/>
<path fill="#8AC346" opacity="1.000000" stroke="none" 
	d="
M379.634644,201.007782 
	C378.876282,201.430984 377.752014,201.850998 376.314484,202.135193 
	C377.090393,201.667786 378.179565,201.336197 379.634644,201.007782 
z"/>
<path fill="#85C543" opacity="1.000000" stroke="none" 
	d="
M329.815735,201.748199 
	C329.121704,202.164566 328.244293,202.331558 327.183990,202.248322 
	C327.878174,201.831680 328.755310,201.665253 329.815735,201.748199 
z"/>
<path fill="#8AC346" opacity="1.000000" stroke="none" 
	d="
M383.666687,201.005737 
	C383.766357,201.524048 383.532654,202.040161 383.298950,202.556290 
	C382.891876,202.238998 382.484802,201.921707 382.038635,201.307098 
	C382.444122,201.007675 382.888702,201.005600 383.666687,201.005737 
z"/>
<path fill="#85C543" opacity="1.000000" stroke="none" 
	d="
M105.976868,222.734283 
	C105.757057,222.790634 105.598495,222.614624 105.487083,222.412613 
	C105.465797,222.374008 105.630447,222.232849 105.879700,222.062378 
	C106.051575,222.154816 106.053047,222.323853 105.976868,222.734283 
z"/>
<path fill="#8BC844" opacity="1.000000" stroke="none" 
	d="
M231.385590,210.165833 
	C231.965393,212.038940 232.639847,213.826508 232.293716,215.387833 
	C231.442764,219.226532 228.765198,221.519882 224.808304,220.834259 
	C223.607178,220.626144 221.997971,218.117844 221.979538,216.645493 
	C221.931519,212.809586 223.979034,210.101685 228.111038,209.646652 
	C229.055710,209.542618 230.046387,209.856064 231.385590,210.165833 
z"/>
<path fill="#8DCA44" opacity="1.000000" stroke="none" 
	d="
M145.883698,215.439545 
	C145.412430,216.566223 145.103653,217.354568 144.613174,218.006149 
	C142.477890,220.842758 139.509247,222.223236 136.460129,220.315460 
	C135.397354,219.650497 135.231552,216.435928 135.705460,214.666885 
	C136.646591,211.153671 139.247635,208.636185 143.056412,209.871689 
	C144.438370,210.319962 145.017258,213.243927 145.883698,215.439545 
z"/>
</svg>